TITLE "WEFUNK SHOW #897"
PERFORMER "WEFUNK RADIO"
REM Year  : 2017
REM Genre : HipHop
FILE "WEFUNK_Show_897_2017-02-24_hq.mp3" MP3
	TRACK 01 AUDIO
		TITLE "intro"
		PERFORMER "WEFUNK RADIO"
		INDEX 01 00:00:00
	TRACK 02 AUDIO
		TITLE "stop play rewind"
		PERFORMER "add-2 feat. rapsody"
		INDEX 01 01:40:18
	TRACK 03 AUDIO
		TITLE "talk (over chief & deheb - elements)"
		PERFORMER "WEFUNK RADIO"
		INDEX 01 05:39:26
	TRACK 04 AUDIO
		TITLE "forget about the fame"
		PERFORMER "isatta sheriff"
		INDEX 01 11:03:08
	TRACK 05 AUDIO
		TITLE "everything above"
		PERFORMER "ravyn lenae"
		INDEX 01 14:52:40
	TRACK 06 AUDIO
		TITLE "hello"
		PERFORMER "erykah badu feat. andre 3000"
		INDEX 01 18:01:62
	TRACK 07 AUDIO
		TITLE "window seat (marrrtin remix)"
		PERFORMER "erykah badu"
		INDEX 01 21:43:16
	TRACK 08 AUDIO
		TITLE "back door (gettin down)"
		PERFORMER "mystic pleasure"
		INDEX 01 26:26:30
	TRACK 09 AUDIO
		TITLE "ain't gonna cry"
		PERFORMER "universal togetherness band"
		INDEX 01 32:07:46
	TRACK 10 AUDIO
		TITLE "too hot"
		PERFORMER "rick asikpo & afro fusion"
		INDEX 01 37:26:74
	TRACK 11 AUDIO
		TITLE "reesis"
		PERFORMER "solar shield"
		INDEX 01 41:52:03
	TRACK 12 AUDIO
		TITLE "flotational device"
		PERFORMER "e. live"
		INDEX 01 44:15:15
	TRACK 13 AUDIO
		TITLE "music"
		PERFORMER "lo steel"
		INDEX 01 48:08:36
	TRACK 14 AUDIO
		TITLE "get into the party life"
		PERFORMER "little beaver"
		INDEX 01 51:13:72
	TRACK 15 AUDIO
		TITLE "hola"
		PERFORMER "no panty"
		INDEX 01 54:59:21
	TRACK 16 AUDIO
		TITLE "verbal toxin"
		PERFORMER "complex fusion feat. shadow the great"
		INDEX 01 59:43:33
	TRACK 17 AUDIO
		TITLE "listen!!!"
		PERFORMER "talib kweli"
		INDEX 01 63:13:41
	TRACK 18 AUDIO
		TITLE "move"
		PERFORMER "oh no"
		INDEX 01 66:19:06
	TRACK 19 AUDIO
		TITLE "all barz"
		PERFORMER "young zee & knotz feat. rah digga"
		INDEX 01 68:35:44
	TRACK 20 AUDIO
		TITLE "hurricane rita"
		PERFORMER "brew feat. the niyat"
		INDEX 01 71:50:36
	TRACK 21 AUDIO
		TITLE "danger! she's a stranger"
		PERFORMER "five stairsteps"
		INDEX 01 75:26:35
	TRACK 22 AUDIO
		TITLE "after laughter (comes tears)"
		PERFORMER "sweet tea"
		INDEX 01 78:07:47
	TRACK 23 AUDIO
		TITLE "4th chamber"
		PERFORMER "el michels affair"
		INDEX 01 81:19:04
	TRACK 24 AUDIO
		TITLE "they don't know"
		PERFORMER "myron & e. with the soul investigators"
		INDEX 01 83:24:60
	TRACK 25 AUDIO
		TITLE "soulful trip (part 2)"
		PERFORMER "ernie hawks & the soul i.g.'s"
		INDEX 01 87:12:61
	TRACK 26 AUDIO
		TITLE "black widow"
		PERFORMER "joe cruz & the cruzettes"
		INDEX 01 89:38:52
	TRACK 27 AUDIO
		TITLE "outer space"
		PERFORMER "orasio garcia & young musicians aware"
		INDEX 01 92:20:02
	TRACK 28 AUDIO
		TITLE "party time"
		PERFORMER "roy porter sound machine"
		INDEX 01 96:29:49
	TRACK 29 AUDIO
		TITLE "sad chicken"
		PERFORMER "leroy & the drivers"
		INDEX 01 99:39:34
	TRACK 30 AUDIO
		TITLE "blind man"
		PERFORMER "l.a. carnival"
		INDEX 01 101:36:18
	TRACK 31 AUDIO
		TITLE "cold sweat (clyde stubblefield 1967 live drum solo)"
		PERFORMER "james brown & the famous flames"
		INDEX 01 104:44:13
	TRACK 32 AUDIO
		TITLE "i got the feelin'"
		PERFORMER "james brown"
		INDEX 01 107:11:07
	TRACK 33 AUDIO
		TITLE "give it up or turnit a loose (remix)"
		PERFORMER "james brown"
		INDEX 01 108:18:28
	TRACK 34 AUDIO
		TITLE "talk (over james brown - ain't it funky now)"
		PERFORMER "WEFUNK RADIO"
		INDEX 01 114:29:69
	TRACK 35 AUDIO
		TITLE "say it loud - i'm black and i'm proud"
		PERFORMER "james brown"
		INDEX 01 121:45:43
	TRACK 36 AUDIO
		TITLE "if you don't work you can't eat"
		PERFORMER "bobby byrd"
		INDEX 01 125:09:45
	TRACK 37 AUDIO
		TITLE "since you been gone"
		PERFORMER "james brown"
		INDEX 01 127:08:36
	TRACK 38 AUDIO
		TITLE "mother popcorn"
		PERFORMER "james brown"
		INDEX 01 131:21:63
	TRACK 39 AUDIO
		TITLE "funky drummer"
		PERFORMER "james brown"
		INDEX 01 134:35:40
	TRACK 40 AUDIO
		TITLE ""
		PERFORMER ""
		INDEX 01 141:04:04